<svg width="252" height="126" viewBox="0 0 252 126" fill="none" xmlns="http://www.w3.org/2000/svg">
<path d="M9.408 119.168C7.856 119.168 6.424 118.808 5.112 118.088C3.816 117.352 2.784 116.336 2.016 115.04C1.264 113.728 0.888 112.256 0.888 110.624C0.888 108.992 1.264 107.528 2.016 106.232C2.784 104.936 3.816 103.928 5.112 103.208C6.424 102.472 7.856 102.104 9.408 102.104C10.976 102.104 12.408 102.472 13.704 103.208C15.016 103.928 16.048 104.936 16.8 106.232C17.552 107.528 17.928 108.992 17.928 110.624C17.928 112.256 17.552 113.728 16.8 115.04C16.048 116.336 15.016 117.352 13.704 118.088C12.408 118.808 10.976 119.168 9.408 119.168ZM9.408 116.792C10.512 116.792 11.496 116.544 12.36 116.048C13.224 115.536 13.896 114.816 14.376 113.888C14.872 112.944 15.12 111.856 15.12 110.624C15.12 109.392 14.872 108.312 14.376 107.384C13.896 106.456 13.224 105.744 12.36 105.248C11.496 104.752 10.512 104.504 9.408 104.504C8.304 104.504 7.32 104.752 6.456 105.248C5.592 105.744 4.912 106.456 4.416 107.384C3.936 108.312 3.696 109.392 3.696 110.624C3.696 111.856 3.936 112.944 4.416 113.888C4.912 114.816 5.592 115.536 6.456 116.048C7.32 116.544 8.304 116.792 9.408 116.792ZM32.5963 105.776V119H29.8603V117.44C29.4283 117.984 28.8603 118.416 28.1563 118.736C27.4683 119.04 26.7323 119.192 25.9483 119.192C24.9083 119.192 23.9723 118.976 23.1403 118.544C22.3243 118.112 21.6763 117.472 21.1963 116.624C20.7323 115.776 20.5003 114.752 20.5003 113.552V105.776H23.2123V113.144C23.2123 114.328 23.5083 115.24 24.1003 115.88C24.6923 116.504 25.5003 116.816 26.5243 116.816C27.5483 116.816 28.3563 116.504 28.9483 115.88C29.5563 115.24 29.8603 114.328 29.8603 113.144V105.776H32.5963ZM38.9423 107.696C39.3423 107.024 39.8703 106.504 40.5263 106.136C41.1983 105.752 41.9903 105.56 42.9023 105.56V108.392H42.2063C41.1343 108.392 40.3183 108.664 39.7583 109.208C39.2143 109.752 38.9423 110.696 38.9423 112.04V119H36.2063V105.776H38.9423V107.696ZM54.3876 107.72C54.8516 107.112 55.4836 106.6 56.2836 106.184C57.0836 105.768 57.9876 105.56 58.9956 105.56C60.1476 105.56 61.1956 105.848 62.1396 106.424C63.0996 106.984 63.8516 107.776 64.3956 108.8C64.9396 109.824 65.2116 111 65.2116 112.328C65.2116 113.656 64.9396 114.848 64.3956 115.904C63.8516 116.944 63.0996 117.76 62.1396 118.352C61.1956 118.928 60.1476 119.216 58.9956 119.216C57.9876 119.216 57.0916 119.016 56.3076 118.616C55.5236 118.2 54.8836 117.688 54.3876 117.08V125.288H51.6516V105.776H54.3876V107.72ZM62.4276 112.328C62.4276 111.416 62.2356 110.632 61.8516 109.976C61.4836 109.304 60.9876 108.8 60.3636 108.464C59.7556 108.112 59.0996 107.936 58.3956 107.936C57.7076 107.936 57.0516 108.112 56.4276 108.464C55.8196 108.816 55.3236 109.328 54.9396 110C54.5716 110.672 54.3876 111.464 54.3876 112.376C54.3876 113.288 54.5716 114.088 54.9396 114.776C55.3236 115.448 55.8196 115.96 56.4276 116.312C57.0516 116.664 57.7076 116.84 58.3956 116.84C59.0996 116.84 59.7556 116.664 60.3636 116.312C60.9876 115.944 61.4836 115.416 61.8516 114.728C62.2356 114.04 62.4276 113.24 62.4276 112.328ZM67.0052 112.328C67.0052 111 67.2772 109.824 67.8212 108.8C68.3812 107.776 69.1332 106.984 70.0772 106.424C71.0372 105.848 72.0932 105.56 73.2452 105.56C74.2852 105.56 75.1892 105.768 75.9572 106.184C76.7412 106.584 77.3652 107.088 77.8292 107.696V105.776H80.5892V119H77.8292V117.032C77.3652 117.656 76.7332 118.176 75.9332 118.592C75.1332 119.008 74.2212 119.216 73.1972 119.216C72.0612 119.216 71.0212 118.928 70.0772 118.352C69.1332 117.76 68.3812 116.944 67.8212 115.904C67.2772 114.848 67.0052 113.656 67.0052 112.328ZM77.8292 112.376C77.8292 111.464 77.6372 110.672 77.2532 110C76.8852 109.328 76.3972 108.816 75.7892 108.464C75.1812 108.112 74.5252 107.936 73.8212 107.936C73.1172 107.936 72.4612 108.112 71.8532 108.464C71.2452 108.8 70.7492 109.304 70.3652 109.976C69.9972 110.632 69.8132 111.416 69.8132 112.328C69.8132 113.24 69.9972 114.04 70.3652 114.728C70.7492 115.416 71.2452 115.944 71.8532 116.312C72.4772 116.664 73.1332 116.84 73.8212 116.84C74.5252 116.84 75.1812 116.664 75.7892 116.312C76.3972 115.96 76.8852 115.448 77.2532 114.776C77.6372 114.088 77.8292 113.288 77.8292 112.376ZM86.9188 107.696C87.3188 107.024 87.8468 106.504 88.5028 106.136C89.1748 105.752 89.9668 105.56 90.8788 105.56V108.392H90.1828C89.1108 108.392 88.2948 108.664 87.7348 109.208C87.1908 109.752 86.9188 110.696 86.9188 112.04V119H84.1828V105.776H86.9188V107.696ZM98.6258 112.4L104.722 119H101.026L96.1298 113.312V119H93.3938V101.24H96.1298V111.56L100.93 105.776H104.722L98.6258 112.4ZM108.075 104.024C107.579 104.024 107.163 103.856 106.827 103.52C106.491 103.184 106.323 102.768 106.323 102.272C106.323 101.776 106.491 101.36 106.827 101.024C107.163 100.688 107.579 100.52 108.075 100.52C108.555 100.52 108.963 100.688 109.299 101.024C109.635 101.36 109.803 101.776 109.803 102.272C109.803 102.768 109.635 103.184 109.299 103.52C108.963 103.856 108.555 104.024 108.075 104.024ZM109.419 105.776V119H106.683V105.776H109.419ZM119.683 105.56C120.723 105.56 121.651 105.776 122.467 106.208C123.299 106.64 123.947 107.28 124.411 108.128C124.875 108.976 125.107 110 125.107 111.2V119H122.395V111.608C122.395 110.424 122.099 109.52 121.507 108.896C120.915 108.256 120.107 107.936 119.083 107.936C118.059 107.936 117.243 108.256 116.635 108.896C116.043 109.52 115.747 110.424 115.747 111.608V119H113.011V105.776H115.747V107.288C116.195 106.744 116.763 106.32 117.451 106.016C118.155 105.712 118.899 105.56 119.683 105.56ZM133.925 105.56C134.949 105.56 135.853 105.768 136.637 106.184C137.437 106.584 138.061 107.088 138.509 107.696V105.776H141.269V119.216C141.269 120.432 141.013 121.512 140.501 122.456C139.989 123.416 139.245 124.168 138.269 124.712C137.309 125.256 136.157 125.528 134.813 125.528C133.021 125.528 131.533 125.104 130.349 124.256C129.165 123.424 128.493 122.288 128.333 120.848H131.045C131.253 121.536 131.693 122.088 132.365 122.504C133.053 122.936 133.869 123.152 134.813 123.152C135.917 123.152 136.805 122.816 137.477 122.144C138.165 121.472 138.509 120.496 138.509 119.216V117.008C138.045 117.632 137.413 118.16 136.613 118.592C135.829 119.008 134.933 119.216 133.925 119.216C132.773 119.216 131.717 118.928 130.757 118.352C129.813 117.76 129.061 116.944 128.501 115.904C127.957 114.848 127.685 113.656 127.685 112.328C127.685 111 127.957 109.824 128.501 108.8C129.061 107.776 129.813 106.984 130.757 106.424C131.717 105.848 132.773 105.56 133.925 105.56ZM138.509 112.376C138.509 111.464 138.317 110.672 137.933 110C137.565 109.328 137.077 108.816 136.469 108.464C135.861 108.112 135.205 107.936 134.501 107.936C133.797 107.936 133.141 108.112 132.533 108.464C131.925 108.8 131.429 109.304 131.045 109.976C130.677 110.632 130.493 111.416 130.493 112.328C130.493 113.24 130.677 114.04 131.045 114.728C131.429 115.416 131.925 115.944 132.533 116.312C133.157 116.664 133.813 116.84 134.501 116.84C135.205 116.84 135.861 116.664 136.469 116.312C137.077 115.96 137.565 115.448 137.933 114.776C138.317 114.088 138.509 113.288 138.509 112.376ZM155.897 119.216C154.857 119.216 153.921 119.032 153.089 118.664C152.273 118.28 151.625 117.768 151.145 117.128C150.665 116.472 150.409 115.744 150.377 114.944H153.209C153.257 115.504 153.521 115.976 154.001 116.36C154.497 116.728 155.113 116.912 155.849 116.912C156.617 116.912 157.209 116.768 157.625 116.48C158.057 116.176 158.273 115.792 158.273 115.328C158.273 114.832 158.033 114.464 157.553 114.224C157.089 113.984 156.345 113.72 155.321 113.432C154.329 113.16 153.521 112.896 152.897 112.64C152.273 112.384 151.729 111.992 151.265 111.464C150.817 110.936 150.593 110.24 150.593 109.376C150.593 108.672 150.801 108.032 151.217 107.456C151.633 106.864 152.225 106.4 152.993 106.064C153.777 105.728 154.673 105.56 155.681 105.56C157.185 105.56 158.393 105.944 159.305 106.712C160.233 107.464 160.729 108.496 160.793 109.808H158.057C158.009 109.216 157.769 108.744 157.337 108.392C156.905 108.04 156.321 107.864 155.585 107.864C154.865 107.864 154.313 108 153.929 108.272C153.545 108.544 153.353 108.904 153.353 109.352C153.353 109.704 153.481 110 153.737 110.24C153.993 110.48 154.305 110.672 154.673 110.816C155.041 110.944 155.585 111.112 156.305 111.32C157.265 111.576 158.049 111.84 158.657 112.112C159.281 112.368 159.817 112.752 160.265 113.264C160.713 113.776 160.945 114.456 160.961 115.304C160.961 116.056 160.753 116.728 160.337 117.32C159.921 117.912 159.329 118.376 158.561 118.712C157.809 119.048 156.921 119.216 155.897 119.216ZM169.653 119.216C168.405 119.216 167.277 118.936 166.269 118.376C165.261 117.8 164.469 117 163.893 115.976C163.317 114.936 163.029 113.736 163.029 112.376C163.029 111.032 163.325 109.84 163.917 108.8C164.509 107.76 165.317 106.96 166.341 106.4C167.365 105.84 168.509 105.56 169.773 105.56C171.037 105.56 172.181 105.84 173.205 106.4C174.229 106.96 175.037 107.76 175.629 108.8C176.221 109.84 176.517 111.032 176.517 112.376C176.517 113.72 176.213 114.912 175.605 115.952C174.997 116.992 174.165 117.8 173.109 118.376C172.069 118.936 170.917 119.216 169.653 119.216ZM169.653 116.84C170.357 116.84 171.013 116.672 171.621 116.336C172.245 116 172.749 115.496 173.133 114.824C173.517 114.152 173.709 113.336 173.709 112.376C173.709 111.416 173.525 110.608 173.157 109.952C172.789 109.28 172.301 108.776 171.693 108.44C171.085 108.104 170.429 107.936 169.725 107.936C169.021 107.936 168.365 108.104 167.757 108.44C167.165 108.776 166.693 109.28 166.341 109.952C165.989 110.608 165.813 111.416 165.813 112.376C165.813 113.8 166.173 114.904 166.893 115.688C167.629 116.456 168.549 116.84 169.653 116.84ZM181.958 101.24V119H179.222V101.24H181.958ZM197.526 105.776V119H194.79V117.44C194.358 117.984 193.79 118.416 193.086 118.736C192.398 119.04 191.662 119.192 190.878 119.192C189.838 119.192 188.902 118.976 188.07 118.544C187.254 118.112 186.606 117.472 186.126 116.624C185.662 115.776 185.43 114.752 185.43 113.552V105.776H188.142V113.144C188.142 114.328 188.438 115.24 189.03 115.88C189.622 116.504 190.43 116.816 191.454 116.816C192.478 116.816 193.286 116.504 193.878 115.88C194.486 115.24 194.79 114.328 194.79 113.144V105.776H197.526ZM204.328 108.008V115.328C204.328 115.824 204.44 116.184 204.664 116.408C204.904 116.616 205.304 116.72 205.864 116.72H207.544V119H205.384C204.152 119 203.208 118.712 202.552 118.136C201.896 117.56 201.568 116.624 201.568 115.328V108.008H200.008V105.776H201.568V102.488H204.328V105.776H207.544V108.008H204.328ZM211.458 104.024C210.962 104.024 210.546 103.856 210.21 103.52C209.874 103.184 209.706 102.768 209.706 102.272C209.706 101.776 209.874 101.36 210.21 101.024C210.546 100.688 210.962 100.52 211.458 100.52C211.938 100.52 212.346 100.688 212.682 101.024C213.018 101.36 213.186 101.776 213.186 102.272C213.186 102.768 213.018 103.184 212.682 103.52C212.346 103.856 211.938 104.024 211.458 104.024ZM212.802 105.776V119H210.066V105.776H212.802ZM222.13 119.216C220.882 119.216 219.754 118.936 218.746 118.376C217.738 117.8 216.946 117 216.37 115.976C215.794 114.936 215.506 113.736 215.506 112.376C215.506 111.032 215.802 109.84 216.394 108.8C216.986 107.76 217.794 106.96 218.818 106.4C219.842 105.84 220.986 105.56 222.25 105.56C223.514 105.56 224.658 105.84 225.682 106.4C226.706 106.96 227.514 107.76 228.106 108.8C228.698 109.84 228.994 111.032 228.994 112.376C228.994 113.72 228.69 114.912 228.082 115.952C227.474 116.992 226.642 117.8 225.586 118.376C224.546 118.936 223.394 119.216 222.13 119.216ZM222.13 116.84C222.834 116.84 223.49 116.672 224.098 116.336C224.722 116 225.226 115.496 225.61 114.824C225.994 114.152 226.186 113.336 226.186 112.376C226.186 111.416 226.002 110.608 225.634 109.952C225.266 109.28 224.778 108.776 224.17 108.44C223.562 108.104 222.906 107.936 222.202 107.936C221.498 107.936 220.842 108.104 220.234 108.44C219.642 108.776 219.17 109.28 218.818 109.952C218.466 110.608 218.29 111.416 218.29 112.376C218.29 113.8 218.65 114.904 219.37 115.688C220.106 116.456 221.026 116.84 222.13 116.84ZM238.37 105.56C239.41 105.56 240.338 105.776 241.154 106.208C241.986 106.64 242.634 107.28 243.098 108.128C243.562 108.976 243.794 110 243.794 111.2V119H241.082V111.608C241.082 110.424 240.786 109.52 240.194 108.896C239.602 108.256 238.794 107.936 237.77 107.936C236.746 107.936 235.93 108.256 235.322 108.896C234.73 109.52 234.434 110.424 234.434 111.608V119H231.698V105.776H234.434V107.288C234.882 106.744 235.45 106.32 236.138 106.016C236.842 105.712 237.586 105.56 238.37 105.56ZM248.388 119.168C247.892 119.168 247.476 119 247.14 118.664C246.804 118.328 246.636 117.912 246.636 117.416C246.636 116.92 246.804 116.504 247.14 116.168C247.476 115.832 247.892 115.664 248.388 115.664C248.868 115.664 249.276 115.832 249.612 116.168C249.948 116.504 250.116 116.92 250.116 117.416C250.116 117.912 249.948 118.328 249.612 118.664C249.276 119 248.868 119.168 248.388 119.168Z" fill="white"/>
<path d="M115.952 54.384C115.952 55.5147 115.685 56.5813 115.152 57.584C114.619 58.5867 113.765 59.408 112.592 60.048C111.419 60.6667 109.915 60.976 108.08 60.976H104.048V70H100.4V47.76H108.08C109.787 47.76 111.227 48.0587 112.4 48.656C113.595 49.232 114.48 50.0213 115.056 51.024C115.653 52.0267 115.952 53.1467 115.952 54.384ZM108.08 58C109.467 58 110.501 57.6907 111.184 57.072C111.867 56.432 112.208 55.536 112.208 54.384C112.208 51.952 110.832 50.736 108.08 50.736H104.048V58H108.08ZM118.215 61.104C118.215 59.3333 118.578 57.7653 119.303 56.4C120.05 55.0347 121.053 53.9787 122.311 53.232C123.591 52.464 124.999 52.08 126.535 52.08C127.922 52.08 129.127 52.3573 130.151 52.912C131.197 53.4453 132.029 54.1173 132.647 54.928V52.368H136.327V70H132.647V67.376C132.029 68.208 131.186 68.9013 130.119 69.456C129.053 70.0107 127.837 70.288 126.471 70.288C124.957 70.288 123.57 69.904 122.311 69.136C121.053 68.3467 120.05 67.2587 119.303 65.872C118.578 64.464 118.215 62.8747 118.215 61.104ZM132.647 61.168C132.647 59.952 132.391 58.896 131.879 58C131.389 57.104 130.738 56.4213 129.927 55.952C129.117 55.4827 128.242 55.248 127.303 55.248C126.365 55.248 125.49 55.4827 124.679 55.952C123.869 56.4 123.207 57.072 122.695 57.968C122.205 58.8427 121.959 59.888 121.959 61.104C121.959 62.32 122.205 63.3867 122.695 64.304C123.207 65.2213 123.869 65.9253 124.679 66.416C125.511 66.8853 126.386 67.12 127.303 67.12C128.242 67.12 129.117 66.8853 129.927 66.416C130.738 65.9467 131.389 65.264 131.879 64.368C132.391 63.4507 132.647 62.384 132.647 61.168ZM144.767 54.928C145.3 54.032 146.004 53.3387 146.879 52.848C147.775 52.336 148.831 52.08 150.047 52.08V55.856H149.119C147.689 55.856 146.601 56.2187 145.855 56.944C145.129 57.6693 144.767 58.928 144.767 60.72V70H141.119V52.368H144.767V54.928ZM160.376 61.2L168.504 70H163.576L157.048 62.416V70H153.4V46.32H157.048V60.08L163.448 52.368H168.504L160.376 61.2ZM172.975 50.032C172.313 50.032 171.759 49.808 171.311 49.36C170.863 48.912 170.639 48.3573 170.639 47.696C170.639 47.0347 170.863 46.48 171.311 46.032C171.759 45.584 172.313 45.36 172.975 45.36C173.615 45.36 174.159 45.584 174.607 46.032C175.055 46.48 175.279 47.0347 175.279 47.696C175.279 48.3573 175.055 48.912 174.607 49.36C174.159 49.808 173.615 50.032 172.975 50.032ZM174.767 52.368V70H171.119V52.368H174.767ZM188.452 52.08C189.839 52.08 191.076 52.368 192.164 52.944C193.274 53.52 194.138 54.3733 194.756 55.504C195.375 56.6347 195.684 58 195.684 59.6V70H192.068V60.144C192.068 58.5653 191.674 57.36 190.884 56.528C190.095 55.6747 189.018 55.248 187.652 55.248C186.287 55.248 185.199 55.6747 184.388 56.528C183.599 57.36 183.204 58.5653 183.204 60.144V70H179.556V52.368H183.204V54.384C183.802 53.6587 184.559 53.0933 185.476 52.688C186.415 52.2827 187.407 52.08 188.452 52.08ZM207.442 52.08C208.807 52.08 210.012 52.3573 211.058 52.912C212.124 53.4453 212.956 54.1173 213.554 54.928V52.368H217.234V70.288C217.234 71.9093 216.892 73.3493 216.21 74.608C215.527 75.888 214.535 76.8907 213.234 77.616C211.954 78.3413 210.418 78.704 208.626 78.704C206.236 78.704 204.252 78.1387 202.674 77.008C201.095 75.8987 200.199 74.384 199.986 72.464H203.602C203.879 73.3813 204.466 74.1173 205.362 74.672C206.279 75.248 207.367 75.536 208.626 75.536C210.098 75.536 211.282 75.088 212.178 74.192C213.095 73.296 213.554 71.9947 213.554 70.288V67.344C212.935 68.176 212.092 68.88 211.026 69.456C209.98 70.0107 208.786 70.288 207.442 70.288C205.906 70.288 204.498 69.904 203.218 69.136C201.959 68.3467 200.956 67.2587 200.21 65.872C199.484 64.464 199.122 62.8747 199.122 61.104C199.122 59.3333 199.484 57.7653 200.21 56.4C200.956 55.0347 201.959 53.9787 203.218 53.232C204.498 52.464 205.906 52.08 207.442 52.08ZM213.554 61.168C213.554 59.952 213.298 58.896 212.786 58C212.295 57.104 211.644 56.4213 210.834 55.952C210.023 55.4827 209.148 55.248 208.21 55.248C207.271 55.248 206.396 55.4827 205.586 55.952C204.775 56.4 204.114 57.072 203.602 57.968C203.111 58.8427 202.866 59.888 202.866 61.104C202.866 62.32 203.111 63.3867 203.602 64.304C204.114 65.2213 204.775 65.9253 205.586 66.416C206.418 66.8853 207.292 67.12 208.21 67.12C209.148 67.12 210.023 66.8853 210.834 66.416C211.644 65.9467 212.295 65.264 212.786 64.368C213.298 63.4507 213.554 62.384 213.554 61.168Z" fill="white"/>
<g clip-path="url(#clip0_4_4597)">
<path d="M78.5271 69.5945V64.7324H75.1757C69.3947 64.7324 66.7413 61.3052 66.7413 56.2613V5.30088H67.7353C78.562 5.30088 85.4379 12.4667 85.4379 23.0027V23.9468H89.5558V0.438431H31.4319V23.9468H35.5499V23.0027C35.5499 12.4667 42.4255 5.30088 53.2524 5.30088H54.2464V56.2613C54.2464 61.3052 51.5931 64.7324 45.8121 64.7324H42.4606V69.5945H78.5271Z" fill="#E20074"/>
<path d="M89.556 46.0861H75.7348V32.2551H89.556V46.0861Z" fill="#E20074"/>
<path d="M45.2517 46.0861H31.4305V32.2551H45.2517V46.0861Z" fill="#E20074"/>
</g>
<defs>
<clipPath id="clip0_4_4597">
<rect width="59" height="70" fill="white" transform="translate(31)"/>
</clipPath>
</defs>
</svg>
