<svg width="1586" height="929" viewBox="0 0 1586 929" fill="none" xmlns="http://www.w3.org/2000/svg">
<path d="M567 233.5L1131 68.5C1144.12 65.0526 1141.57 54.8933 1137.03 42L1069 61.5L1061.5 35.5L553 185C548.257 187.81 546.841 190.001 547.5 195.5L556 227C559.592 232.344 562.043 233.726 567 233.5Z" fill="#A7A7A7"/>
<path d="M1131 23.5C1132.6 29.9746 1135.01 36.2584 1137.03 42M1137.03 42C1141.57 54.8933 1144.12 65.0526 1131 68.5L567 233.5C562.043 233.726 559.592 232.344 556 227L547.5 195.5C546.841 190.001 548.257 187.81 553 185L1061.5 35.5L1069 61.5L1137.03 42Z" stroke="#2C2C2C" stroke-width="2"/>
<path d="M1148.5 87L1163 135.5L589.5 304.5C584.297 305.18 582.107 304.21 579 301L569 267.5C567.391 262.649 568.718 260.2 572.5 256L1148.5 87Z" fill="#A7A7A7" stroke="#2C2C2C" stroke-width="2"/>
<path d="M817 928L778 810.5L757.188 795.751L1384.5 570H1439L1584.5 536L1470 148.5L1457 151L1431 137L1391.5 1H976.5L322 190L118 120M744.5 928L722.5 855L161.5 571.5L147.5 410L189 236.5L192.5 200.5L95 157" stroke="#E10075" stroke-width="2"/>
<path d="M812.5 729L806 709.5L1328 553L1335.5 576L812.5 729Z" fill="#A7A7A7"/>
<path d="M1291 512L1298 533L816 674C808.416 678.699 800.601 677.244 780 667L680 615.5C668.295 610.067 662.099 586.491 651 547L592 345C593.684 333.994 595.973 328.539 607 322.5L846 252.5L870 246L968.5 217L1006.5 206L1028.5 199L1098.5 178.5L1116 235.5L1137 229.437L1120.5 172.5L1170 158L1187 215L1137 229.437L1116 235.5L1023.5 264L1012.37 226.041L976 238L968.5 217L870 246L885.5 301L862 308L846 252.5L607 322.5C595.973 328.539 593.684 333.994 592 345L651 547C662.099 586.491 668.295 610.067 680 615.5L780 667C800.601 677.244 808.416 678.699 816 674L812.5 663L1087.5 582C1091.78 578.469 1091.61 575.743 1090 570.5L1291 512Z" fill="#A7A7A7"/>
<path d="M797 879.5C782.776 845.779 771.967 829.779 749 805L630 735C619.169 723.731 617.593 716.704 619 703.5L644.5 651C655.444 642.771 662.548 641.706 676.5 644.5L806 709.5M806 709.5L812.5 729L1335.5 576L1328 553L806 709.5ZM816 674L812.5 663L1087.5 582C1091.78 578.469 1091.61 575.743 1090 570.5L1291 512L1298 533L816 674ZM816 674C808.416 678.699 800.601 677.244 780 667L680 615.5C668.295 610.067 662.099 586.491 651 547L592 345C593.684 333.994 595.973 328.539 607 322.5L846 252.5M846 252.5L862 308L885.5 301L870 246M846 252.5L870 246M870 246L968.5 217M968.5 217L976 238L1012.5 226L1006.5 206M968.5 217L1006.5 206M1006.5 206L1028.5 199L1098.5 178.5L1116 235.5M1006.5 206L1023.5 264L1116 235.5M1116 235.5L1137 229.437M1187 215L1170 158L1120.5 172.5L1137 229.437M1187 215L1137 229.437M1187 215L1201 210.5" stroke="#2C2C2C" stroke-width="2"/>
<path d="M387 182L392.5 203L977 31.27L970 10L387 182Z" fill="#A7A7A7"/>
<path d="M291.5 308.5L211.5 270.5L200 295L279 334.5L258.5 375L178.5 336L166 360L247.5 401L224.5 448L156 415L158.5 446L212.5 473L189 520.5L163 507.5L165 538.5L451 682.5L478.5 696.5L675.5 795L663.5 816L468 717.5L478.5 696.5L451 682.5L439.5 704.5L167 566.5L165 538.5L163 507.5L158.5 446L156 415V402.5L166 360L178.5 336L200 295L211.5 270.5L223 249.5L302.25 289L291.5 308.5Z" fill="#A7A7A7"/>
<path d="M407.5 251.5L399 230L486 204.5C507.941 201.753 516.943 206.366 527.5 224.5L560.5 337L627 563C630.307 595.018 627.336 611.453 618 639.5L589 695.5C575.261 706.867 566.611 707.708 550 702.5L319.5 585.5L215.5 534L239 486.5L342 538.5L319.5 585.5L550 702.5C566.611 707.708 575.261 706.867 589 695.5L618 639.5C627.336 611.453 630.307 595.018 627 563L560.5 337L538 342.5L506 232L527.5 224.5C516.943 206.366 507.941 201.753 486 204.5L492.5 226L407.5 251.5Z" fill="#A7A7A7"/>
<path d="M347.5 451L323 498L247.5 460L270.5 413L347.5 451Z" fill="#A7A7A7"/>
<path d="M719.5 756L706 777.5L746 804L759.188 782.251L719.5 756Z" fill="#A7A7A7"/>
<path d="M1062 35.5L1054.5 8.5L977 31.27M392.5 203L387 182L970 10L977 31.27M392.5 203L977 31.27M392.5 203L330.5 221C296.267 219.896 288.415 215.54 299.5 199.5M275 176C265.195 179.992 259.211 180.195 247.5 176L13 82.5M1 110.5L252.5 211C271.137 230.369 281.587 241.227 306.5 248.5C312.948 255.079 314.503 259.628 313 269.5L302.25 289M211.5 270.5L291.5 308.5L302.25 289M211.5 270.5L223 249.5L302.25 289M211.5 270.5L200 295M399 230L351 244C339.004 249.822 335.348 259.129 330.5 279L279 381.5C278.857 385.575 279.488 387.624 284.5 390L365 431.5L341.5 536.5M399 230L407.5 251.5L492.5 226L486 204.5M399 230L486 204.5M486 204.5C507.941 201.753 516.943 206.366 527.5 224.5M527.5 224.5L506 232L538 342.5L560.5 337M527.5 224.5L560.5 337M560.5 337L627 563C630.307 595.018 627.336 611.453 618 639.5L589 695.5C575.261 706.867 566.611 707.708 550 702.5L319.5 585.5M319.5 585.5L342 538.5L239 486.5L215.5 534L319.5 585.5ZM200 295L279 334.5L258.5 375L178.5 336M200 295L178.5 336M178.5 336L166 360M166 360L247.5 401L224.5 448L156 415M166 360L156 402.5V415M156 415L158.5 446M158.5 446L212.5 473L189 520.5L163 507.5M158.5 446L163 507.5M163 507.5L165 538.5M165 538.5L451 682.5M165 538.5L167 566.5L439.5 704.5L451 682.5M451 682.5L478.5 696.5M478.5 696.5L468 717.5L663.5 816L675.5 795M478.5 696.5L675.5 795M675.5 795C720.076 816.32 741.121 835.667 768 890M323 498L347.5 451L270.5 413L247.5 460L323 498ZM706 777.5L719.5 756L759.188 782.251L746 804L706 777.5Z" stroke="#2C2C2C" stroke-width="2"/>
<path d="M1416 461L966 595L963 596.5L928.5 479L909.5 484.5L912 492.5L880 502.5L878 497L780.5 526L778.5 522.5L680.5 551.5V554.5L673 556L615 358.5L646 348L640.5 331L646 329L647 332L655.5 330L653.5 320.5L684.5 311.5L686.5 312.5L736.5 296L735 290L755.5 284L757 289L788 279.5L822 396.5L838 392L839.5 395L896.5 377L880.5 324.5L1336.5 190.5L1416 461Z" fill="#E10075" stroke="#2C2C2C" stroke-width="2"/>
<path d="M545 553.5L539 681.5L334.5 579L368.5 429.5L283 384.5L334.5 281L457.5 343L425.5 492.5L545 553.5Z" fill="#E10075" stroke="#2C2C2C" stroke-width="2"/>
<path d="M1425.5 392.5L1401 400L1367 286L1391.5 279L1425.5 392.5Z" fill="#A7A7A7"/>
<path d="M1312 516.5L1309.5 505.5L1390.5 480L1395 492L1312 516.5Z" fill="#A7A7A7"/>
<path d="M1219 210L1215.5 198.5L1298 175.5L1301 186.5L1219 210Z" fill="#A7A7A7"/>
<path d="M1425.5 392.5L1401 400L1367 286L1391.5 279L1425.5 392.5Z" stroke="#2C2C2C" stroke-width="2"/>
<path d="M1312 516.5L1309.5 505.5L1390.5 480L1395 492L1312 516.5Z" stroke="#2C2C2C" stroke-width="2"/>
<path d="M1219 210L1215.5 198.5L1298 175.5L1301 186.5L1219 210Z" stroke="#2C2C2C" stroke-width="2"/>
<path d="M764.158 837.178L754.098 842.173L752.881 839.723L758.915 836.727L751.764 837.473L750.782 835.495L755.706 830.228L749.658 833.231L748.441 830.78L758.501 825.785L759.939 828.68L754.376 834.961L762.728 834.298L764.158 837.178ZM756.666 847.632C756.277 846.849 756.093 846.059 756.114 845.263C756.14 844.475 756.374 843.746 756.814 843.075C757.26 842.413 757.898 841.876 758.729 841.463C759.551 841.055 760.362 840.879 761.164 840.933C761.975 840.983 762.704 841.24 763.351 841.705C763.999 842.17 764.517 842.793 764.906 843.577C765.295 844.36 765.479 845.15 765.457 845.947C765.436 846.743 765.2 847.48 764.75 848.156C764.309 848.827 763.678 849.367 762.856 849.775C762.035 850.183 761.216 850.357 760.401 850.298C759.599 850.243 758.873 849.978 758.22 849.504C757.573 849.04 757.055 848.416 756.666 847.632ZM758.787 846.579C759.019 847.048 759.388 847.359 759.893 847.513C760.403 847.676 760.978 847.599 761.618 847.281C762.258 846.964 762.67 846.557 762.852 846.061C763.04 845.575 763.017 845.098 762.785 844.63C762.548 844.152 762.179 843.841 761.678 843.697C761.187 843.547 760.617 843.634 759.967 843.957C759.327 844.274 758.911 844.672 758.719 845.148C758.532 845.634 758.554 846.111 758.787 846.579ZM771.325 850.245L760.72 855.511L759.504 853.06L770.108 847.795L771.325 850.245ZM765.373 854.807C766.194 854.399 766.992 854.194 767.764 854.191C768.542 854.198 769.231 854.386 769.831 854.755C770.431 855.124 770.894 855.638 771.222 856.297C771.483 856.823 771.61 857.355 771.604 857.894C771.602 858.443 771.477 858.934 771.228 859.367L774.939 857.524L776.156 859.975L765.551 865.24L764.334 862.79L765.481 862.22C764.985 862.181 764.516 862.003 764.073 861.687C763.635 861.38 763.276 860.945 762.996 860.382C762.669 859.722 762.539 859.042 762.608 858.341C762.686 857.636 762.958 856.971 763.422 856.347C763.901 855.728 764.551 855.215 765.373 854.807ZM768.333 860.804C768.944 860.501 769.341 860.089 769.524 859.57C769.711 859.06 769.684 858.561 769.442 858.074C769.2 857.587 768.817 857.259 768.293 857.091C767.783 856.927 767.222 856.997 766.611 857.301C765.999 857.604 765.595 858.013 765.398 858.528C765.215 859.047 765.245 859.551 765.487 860.038C765.729 860.525 766.11 860.848 766.629 861.007C767.153 861.176 767.721 861.108 768.333 860.804ZM770.202 864.534C771.024 864.126 771.821 863.92 772.594 863.918C773.371 863.925 774.06 864.113 774.66 864.482C775.26 864.851 775.724 865.365 776.051 866.024C776.331 866.588 776.461 867.137 776.44 867.671C776.424 868.214 776.287 868.694 776.028 869.108L777.16 868.546L778.377 870.996L770.38 874.967L769.164 872.516L770.296 871.954C769.805 871.9 769.338 871.715 768.895 871.399C768.457 871.093 768.098 870.657 767.818 870.094C767.496 869.444 767.369 868.769 767.437 868.068C767.516 867.362 767.787 866.697 768.252 866.074C768.73 865.455 769.38 864.941 770.202 864.534ZM773.162 870.531C773.773 870.227 774.171 869.816 774.353 869.296C774.541 868.786 774.514 868.288 774.272 867.801C774.03 867.313 773.647 866.986 773.122 866.817C772.612 866.654 772.052 866.723 771.44 867.027C770.829 867.331 770.425 867.74 770.227 868.254C770.045 868.774 770.074 869.277 770.316 869.764C770.558 870.252 770.939 870.575 771.458 870.734C771.983 870.902 772.551 870.835 773.162 870.531ZM775.34 879.198L781.904 878.1L783.199 880.708L773.794 881.841L772.292 878.818L778.88 872.01L780.182 874.632L775.34 879.198ZM777.215 889.02C776.869 888.323 776.68 887.643 776.649 886.979C776.617 886.316 776.728 885.725 776.983 885.206C777.247 884.682 777.627 884.273 778.124 883.978L779.326 886.4C779.064 886.566 778.903 886.807 778.845 887.121C778.787 887.436 778.841 887.761 779.007 888.095C779.159 888.401 779.332 888.606 779.527 888.712C779.737 888.822 779.937 888.83 780.128 888.735C780.358 888.621 780.466 888.419 780.452 888.128C780.448 887.832 780.38 887.383 780.248 886.782C780.098 886.142 779.999 885.596 779.952 885.143C779.916 884.684 779.986 884.239 780.164 883.805C780.351 883.367 780.717 883.012 781.261 882.742C781.72 882.514 782.197 882.432 782.693 882.495C783.203 882.564 783.689 882.787 784.151 883.165C784.617 883.553 785.019 884.086 785.356 884.764C785.854 885.767 785.997 886.679 785.785 887.499C785.577 888.328 785.084 888.99 784.305 889.484L783.181 887.219C783.439 887.044 783.597 886.81 783.655 886.52C783.718 886.238 783.666 885.93 783.5 885.596C783.358 885.309 783.192 885.118 783.001 885.022C782.82 884.922 782.634 884.919 782.443 885.013C782.214 885.127 782.101 885.332 782.105 885.628C782.114 885.933 782.189 886.372 782.33 886.945C782.471 887.613 782.558 888.172 782.59 888.62C782.632 889.064 782.554 889.507 782.358 889.951C782.175 890.398 781.809 890.765 781.26 891.049C780.792 891.282 780.305 891.357 779.799 891.274C779.308 891.197 778.834 890.962 778.377 890.569C777.925 890.186 777.538 889.67 777.215 889.02ZM782.109 898.588L784.253 894.487L780.899 896.152L779.683 893.701L790.287 888.436L791.504 890.886L785.643 893.797L790.098 894.603L791.6 897.627L785.936 896.295L783.617 901.626L782.109 898.588ZM787.852 900.081C788.673 899.673 789.471 899.467 790.243 899.465C791.021 899.472 791.71 899.66 792.31 900.029C792.91 900.398 793.373 900.912 793.701 901.571C793.981 902.135 794.11 902.683 794.09 903.218C794.074 903.761 793.937 904.241 793.678 904.655L794.81 904.093L796.027 906.543L788.03 910.514L786.813 908.063L787.946 907.501C787.454 907.447 786.987 907.262 786.545 906.946C786.107 906.64 785.748 906.204 785.468 905.641C785.145 904.991 785.018 904.316 785.087 903.615C785.165 902.909 785.437 902.244 785.901 901.621C786.38 901.002 787.03 900.488 787.852 900.081ZM790.812 906.078C791.423 905.774 791.82 905.363 792.003 904.843C792.19 904.333 792.163 903.835 791.921 903.348C791.679 902.86 791.296 902.533 790.772 902.364C790.262 902.2 789.701 902.27 789.09 902.574C788.478 902.878 788.074 903.287 787.877 903.801C787.694 904.321 787.724 904.824 787.966 905.311C788.208 905.799 788.589 906.122 789.108 906.281C789.632 906.449 790.2 906.381 790.812 906.078ZM796.894 903.29L793.732 900.555L795.423 899.715L798.8 902.344L796.894 903.29Z" fill="#E10075"/>
<path d="M795.923 913.615C795.711 913.106 795.125 912.865 794.615 913.077C794.106 913.289 793.865 913.875 794.077 914.385L795.923 913.615ZM799.619 926.925C800.13 927.135 800.714 926.891 800.925 926.381L804.351 918.059C804.562 917.548 804.318 916.964 803.807 916.753C803.297 916.543 802.712 916.786 802.502 917.297L799.456 924.695L792.059 921.649C791.548 921.438 790.964 921.682 790.753 922.193C790.543 922.703 790.786 923.288 791.297 923.498L799.619 926.925ZM794.077 914.385L799.077 926.385L800.923 925.615L795.923 913.615L794.077 914.385Z" fill="#E10075"/>
<path d="M58.9624 110.171L51.0171 119.054L47.8488 117.756L48.421 105.852L51.1156 106.956L50.4764 115.858L56.2826 109.073L58.9624 110.171ZM67.5859 116.195L57.4112 126.256L54.6871 125.14L58.305 121.712L58.2142 112.355L61.042 113.513L60.8346 119.463L64.8469 115.072L67.5859 116.195ZM65.4681 112.923L61.2873 112.957L62.0032 111.21L66.275 110.954L65.4681 112.923ZM70.1117 116.227C69.6676 116.045 69.3549 115.767 69.1739 115.393C69.0067 115.013 69.002 114.631 69.1597 114.246C69.3215 113.851 69.5931 113.582 69.9747 113.439C70.3701 113.289 70.7899 113.306 71.234 113.488C71.6683 113.666 71.9691 113.945 72.1362 114.324C72.3173 114.698 72.327 115.083 72.1652 115.477C72.0074 115.862 71.7309 116.129 71.3354 116.279C70.9539 116.422 70.546 116.405 70.1117 116.227ZM67.2111 126.935C66.7945 127.951 66.2386 128.576 65.5434 128.81C64.8441 129.054 64.0355 128.988 63.1176 128.612L62.1256 128.205L63.0053 126.058L63.6123 126.307C63.8886 126.42 64.1083 126.447 64.2712 126.387C64.4342 126.327 64.5662 126.174 64.6673 125.927L68.5014 116.57L71.0331 117.607L67.2111 126.935ZM70.6634 122.263C71.0113 121.414 71.4745 120.733 72.0533 120.221C72.6419 119.713 73.2833 119.4 73.9776 119.281C74.6719 119.162 75.3595 119.242 76.0406 119.521C76.6229 119.759 77.0827 120.086 77.4199 120.501C77.767 120.92 77.9801 121.37 78.0593 121.852L78.5386 120.683L81.0703 121.72L77.6851 129.981L75.1534 128.944L75.6326 127.774C75.2282 128.058 74.7553 128.228 74.2141 128.283C73.6827 128.341 73.1259 128.252 72.5435 128.013C71.8724 127.738 71.3312 127.314 70.92 126.743C70.5129 126.161 70.2779 125.482 70.2151 124.707C70.1662 123.926 70.3156 123.112 70.6634 122.263ZM76.846 124.813C77.1048 124.182 77.1314 123.61 76.9257 123.1C76.7299 122.593 76.3803 122.236 75.8769 122.03C75.3735 121.824 74.8694 121.831 74.3644 122.05C73.8733 122.264 73.4984 122.687 73.2396 123.318C72.9807 123.95 72.9472 124.524 73.1389 125.041C73.3446 125.552 73.6992 125.91 74.2025 126.116C74.7059 126.323 75.2052 126.314 75.7003 126.09C76.2052 125.871 76.5871 125.445 76.846 124.813ZM82.7409 129.615L86.3238 131.083L85.4684 133.171L79.0577 130.544L79.8828 128.53L85.0223 125.778L81.6171 124.382L82.4725 122.295L88.7795 124.879L87.9545 126.893L82.7409 129.615ZM88.0567 129.39C88.4046 128.541 88.8678 127.861 89.4466 127.348C90.0352 126.84 90.6766 126.527 91.3709 126.408C92.0652 126.289 92.7528 126.369 93.4339 126.648C93.9768 126.87 94.4237 127.186 94.7749 127.595C95.1359 128.008 95.3658 128.46 95.4647 128.95L97.036 125.115L99.5677 126.153L95.0784 137.109L92.5467 136.071L93.032 134.887C92.6334 135.184 92.1634 135.361 91.6222 135.416C91.0908 135.475 90.534 135.385 89.9516 135.146C89.2706 134.867 88.7245 134.442 88.3133 133.87C87.9062 133.288 87.6712 132.609 87.6084 131.834C87.5595 131.054 87.7089 130.239 88.0567 129.39ZM94.2393 131.94C94.4981 131.309 94.5247 130.738 94.319 130.227C94.1232 129.72 93.7736 129.363 93.2702 129.157C92.7668 128.951 92.2627 128.958 91.7577 129.177C91.2666 129.391 90.8917 129.814 90.6329 130.445C90.374 131.077 90.3405 131.651 90.5322 132.168C90.7379 132.679 91.0925 133.037 91.5958 133.243C92.0992 133.45 92.5985 133.441 93.0936 133.217C93.5985 132.998 93.9804 132.572 94.2393 131.94ZM108.2 130.347C109.296 130.796 110.164 131.405 110.805 132.175C111.447 132.945 111.827 133.816 111.948 134.788C112.083 135.753 111.94 136.75 111.519 137.776C111.102 138.793 110.505 139.603 109.728 140.206C108.96 140.814 108.073 141.165 107.066 141.26C106.068 141.358 105.027 141.185 103.941 140.74L100.047 139.145L104.306 128.751L108.2 130.347ZM104.676 138.482C105.634 138.875 106.486 138.918 107.233 138.614C107.981 138.309 108.55 137.678 108.943 136.72C109.335 135.763 109.374 134.909 109.059 134.157C108.745 133.406 108.109 132.834 107.151 132.442L105.952 131.95L103.477 137.991L104.676 138.482ZM122.347 138.634L118.962 146.895L116.43 145.858L116.891 144.733C116.485 144.993 116.013 145.145 115.476 145.19C114.953 145.229 114.425 145.14 113.892 144.921C113.26 144.663 112.759 144.296 112.389 143.821C112.022 143.337 111.815 142.774 111.767 142.131C111.719 141.489 111.843 140.808 112.138 140.087L114.116 135.261L116.632 136.292L114.794 140.778C114.568 141.331 114.535 141.819 114.696 142.242C114.857 142.665 115.179 142.976 115.663 143.174C116.156 143.376 116.609 143.383 117.02 143.195C117.432 143.006 117.751 142.635 117.977 142.082L119.816 137.596L122.347 138.634ZM129.236 141.353C130.203 141.749 130.844 142.38 131.157 143.247C131.485 144.107 131.424 145.085 130.975 146.181L128.997 151.007L126.481 149.976L128.319 145.49C128.545 144.937 128.578 144.449 128.417 144.026C128.256 143.603 127.934 143.292 127.45 143.094C126.967 142.896 126.519 142.891 126.108 143.08C125.696 143.268 125.377 143.639 125.15 144.192L123.312 148.678L120.781 147.64L124.166 139.379L126.697 140.416L126.249 141.512C126.655 141.252 127.118 141.107 127.637 141.078C128.16 141.039 128.693 141.13 129.236 141.353ZM131.952 147.376C132.3 146.528 132.763 145.847 133.342 145.335C133.93 144.827 134.572 144.513 135.266 144.394C135.96 144.275 136.648 144.355 137.329 144.635C137.912 144.873 138.371 145.2 138.709 145.615C139.056 146.034 139.269 146.484 139.348 146.966L139.827 145.796L142.359 146.834L138.974 155.095L136.442 154.058L136.921 152.888C136.517 153.172 136.044 153.341 135.503 153.396C134.971 153.455 134.414 153.365 133.832 153.127C133.161 152.852 132.62 152.428 132.209 151.856C131.801 151.274 131.567 150.596 131.504 149.821C131.455 149.04 131.604 148.225 131.952 147.376ZM138.135 149.927C138.393 149.295 138.42 148.724 138.214 148.213C138.019 147.707 137.669 147.35 137.166 147.144C136.662 146.938 136.158 146.944 135.653 147.164C135.162 147.378 134.787 147.8 134.528 148.432C134.269 149.064 134.236 149.638 134.428 150.155C134.633 150.665 134.988 151.024 135.491 151.23C135.995 151.436 136.494 151.428 136.989 151.204C137.494 150.984 137.876 150.559 138.135 149.927ZM145.801 147.241C145.357 147.059 145.044 146.781 144.863 146.407C144.696 146.028 144.691 145.645 144.849 145.26C145.011 144.866 145.282 144.597 145.664 144.453C146.059 144.304 146.479 144.32 146.923 144.502C147.357 144.68 147.658 144.959 147.825 145.339C148.006 145.713 148.016 146.097 147.854 146.492C147.696 146.877 147.42 147.144 147.024 147.293C146.643 147.437 146.235 147.419 145.801 147.241ZM142.9 157.949C142.484 158.966 141.928 159.591 141.232 159.825C140.533 160.068 139.725 160.002 138.807 159.626L137.815 159.22L138.694 157.073L139.301 157.322C139.578 157.435 139.797 157.461 139.96 157.401C140.123 157.341 140.255 157.188 140.356 156.941L144.19 147.584L146.722 148.622L142.9 157.949ZM148.469 159.125C147.749 158.829 147.158 158.443 146.696 157.966C146.235 157.488 145.928 156.971 145.777 156.413C145.629 155.845 145.644 155.287 145.823 154.738L148.325 155.763C148.238 156.061 148.276 156.348 148.44 156.622C148.604 156.897 148.859 157.105 149.204 157.247C149.52 157.376 149.786 157.416 150.003 157.367C150.233 157.311 150.388 157.185 150.469 156.987C150.566 156.75 150.514 156.527 150.311 156.317C150.113 156.098 149.766 155.806 149.27 155.441C148.734 155.06 148.299 154.715 147.965 154.405C147.635 154.085 147.394 153.704 147.241 153.261C147.092 152.808 147.133 152.3 147.364 151.738C147.558 151.264 147.862 150.887 148.276 150.607C148.705 150.322 149.217 150.169 149.813 150.148C150.42 150.131 151.073 150.266 151.774 150.553C152.81 150.978 153.52 151.568 153.901 152.324C154.293 153.084 154.36 153.907 154.101 154.792L151.761 153.834C151.839 153.531 151.804 153.252 151.656 152.995C151.517 152.742 151.275 152.545 150.93 152.403C150.633 152.282 150.382 152.248 150.176 152.302C149.973 152.346 149.832 152.467 149.751 152.664C149.654 152.901 149.704 153.129 149.903 153.349C150.111 153.572 150.457 153.852 150.941 154.189C151.489 154.598 151.922 154.96 152.243 155.276C152.567 155.582 152.801 155.966 152.946 156.429C153.105 156.885 153.071 157.402 152.847 157.979C152.649 158.462 152.332 158.84 151.898 159.112C151.478 159.378 150.967 159.514 150.365 159.521C149.772 159.532 149.141 159.4 148.469 159.125ZM158.461 163.081L157.364 158.585L155.945 162.049L153.413 161.012L157.902 150.056L160.434 151.093L157.953 157.149L161.832 154.813L164.956 156.093L159.822 158.831L161.6 164.367L158.461 163.081ZM163.76 160.41C164.108 159.561 164.571 158.881 165.15 158.369C165.739 157.861 166.38 157.547 167.074 157.428C167.769 157.309 168.456 157.389 169.137 157.668C169.72 157.907 170.18 158.234 170.517 158.649C170.864 159.067 171.077 159.518 171.156 160L171.635 158.83L174.167 159.868L170.782 168.129L168.25 167.092L168.729 165.922C168.325 166.206 167.852 166.375 167.311 166.43C166.78 166.489 166.223 166.399 165.64 166.16C164.969 165.885 164.428 165.462 164.017 164.89C163.61 164.308 163.375 163.63 163.312 162.855C163.263 162.074 163.412 161.259 163.76 160.41ZM169.943 162.961C170.202 162.329 170.228 161.758 170.023 161.247C169.827 160.74 169.477 160.384 168.974 160.178C168.47 159.971 167.966 159.978 167.461 160.198C166.97 160.411 166.595 160.834 166.336 161.466C166.078 162.098 166.044 162.672 166.236 163.188C166.441 163.699 166.796 164.058 167.299 164.264C167.803 164.47 168.302 164.461 168.797 164.238C169.302 164.018 169.684 163.593 169.943 162.961ZM172.671 156.851L168.49 156.884L169.206 155.137L173.478 154.882L172.671 156.851Z" fill="#E10075"/>
<path d="M41.713 109.727C42.2263 109.931 42.8076 109.68 43.0114 109.166C43.2153 108.653 42.9644 108.072 42.4511 107.868L41.713 109.727ZM29.6034 103.082C29.0963 103.301 28.8626 103.889 29.0815 104.396L32.6477 112.66C32.8666 113.167 33.4551 113.4 33.9621 113.181C34.4692 112.963 34.7029 112.374 34.484 111.867L31.314 104.522L38.6591 101.352C39.1662 101.133 39.3999 100.545 39.181 100.037C38.9622 99.5304 38.3737 99.2968 37.8666 99.5156L29.6034 103.082ZM42.4511 107.868L30.3686 103.071L29.6306 104.929L41.713 109.727L42.4511 107.868Z" fill="#E10075"/>
<path d="M347.304 369.576C348.499 369.789 349.512 370.419 350.344 371.464C351.176 372.509 351.592 373.693 351.592 375.016C351.592 376.147 351.293 377.171 350.696 378.088C350.12 378.984 349.277 379.699 348.168 380.232C347.059 380.744 345.768 381 344.296 381H335.4V358.76H343.88C345.395 358.76 346.696 359.016 347.784 359.528C348.872 360.04 349.693 360.733 350.248 361.608C350.803 362.461 351.08 363.421 351.08 364.488C351.08 365.768 350.739 366.835 350.056 367.688C349.373 368.541 348.456 369.171 347.304 369.576ZM339.048 368.104H343.56C344.755 368.104 345.683 367.837 346.344 367.304C347.027 366.749 347.368 365.96 347.368 364.936C347.368 363.933 347.027 363.155 346.344 362.6C345.683 362.024 344.755 361.736 343.56 361.736H339.048V368.104ZM343.976 378.024C345.213 378.024 346.184 377.725 346.888 377.128C347.592 376.531 347.944 375.699 347.944 374.632C347.944 373.544 347.571 372.68 346.824 372.04C346.077 371.4 345.085 371.08 343.848 371.08H339.048V378.024H343.976ZM354.34 369.832C354.34 367.656 354.842 365.704 355.844 363.976C356.868 362.248 358.244 360.904 359.972 359.944C361.722 358.963 363.631 358.472 365.7 358.472C368.068 358.472 370.17 359.059 372.004 360.232C373.86 361.384 375.204 363.027 376.036 365.16H371.652C371.076 363.987 370.276 363.112 369.252 362.536C368.228 361.96 367.044 361.672 365.7 361.672C364.228 361.672 362.916 362.003 361.764 362.664C360.612 363.325 359.706 364.275 359.044 365.512C358.404 366.749 358.084 368.189 358.084 369.832C358.084 371.475 358.404 372.915 359.044 374.152C359.706 375.389 360.612 376.349 361.764 377.032C362.916 377.693 364.228 378.024 365.7 378.024C367.044 378.024 368.228 377.736 369.252 377.16C370.276 376.584 371.076 375.709 371.652 374.536H376.036C375.204 376.669 373.86 378.312 372.004 379.464C370.17 380.616 368.068 381.192 365.7 381.192C363.61 381.192 361.7 380.712 359.972 379.752C358.244 378.771 356.868 377.416 355.844 375.688C354.842 373.96 354.34 372.008 354.34 369.832ZM394.674 358.76V361.736H388.754V381H385.106V361.736H379.154V358.76H394.674ZM399.905 376.04C401.953 374.269 403.563 372.819 404.737 371.688C405.931 370.536 406.923 369.341 407.713 368.104C408.502 366.867 408.897 365.629 408.897 364.392C408.897 363.112 408.587 362.109 407.969 361.384C407.371 360.659 406.422 360.296 405.121 360.296C403.862 360.296 402.881 360.701 402.177 361.512C401.494 362.301 401.131 363.368 401.089 364.712H397.569C397.633 362.28 398.358 360.424 399.745 359.144C401.153 357.843 402.934 357.192 405.089 357.192C407.414 357.192 409.227 357.832 410.529 359.112C411.851 360.392 412.513 362.099 412.513 364.232C412.513 365.768 412.118 367.251 411.329 368.68C410.561 370.088 409.633 371.357 408.545 372.488C407.478 373.597 406.113 374.888 404.449 376.36L403.009 377.64H413.153V380.68H397.601V378.024L399.905 376.04Z" fill="#2C2C2C"/>
<path d="M1117.3 393.576C1118.5 393.789 1119.51 394.419 1120.34 395.464C1121.18 396.509 1121.59 397.693 1121.59 399.016C1121.59 400.147 1121.29 401.171 1120.7 402.088C1120.12 402.984 1119.28 403.699 1118.17 404.232C1117.06 404.744 1115.77 405 1114.3 405H1105.4V382.76H1113.88C1115.39 382.76 1116.7 383.016 1117.78 383.528C1118.87 384.04 1119.69 384.733 1120.25 385.608C1120.8 386.461 1121.08 387.421 1121.08 388.488C1121.08 389.768 1120.74 390.835 1120.06 391.688C1119.37 392.541 1118.46 393.171 1117.3 393.576ZM1109.05 392.104H1113.56C1114.75 392.104 1115.68 391.837 1116.34 391.304C1117.03 390.749 1117.37 389.96 1117.37 388.936C1117.37 387.933 1117.03 387.155 1116.34 386.6C1115.68 386.024 1114.75 385.736 1113.56 385.736H1109.05V392.104ZM1113.98 402.024C1115.21 402.024 1116.18 401.725 1116.89 401.128C1117.59 400.531 1117.94 399.699 1117.94 398.632C1117.94 397.544 1117.57 396.68 1116.82 396.04C1116.08 395.4 1115.09 395.08 1113.85 395.08H1109.05V402.024H1113.98ZM1124.34 393.832C1124.34 391.656 1124.84 389.704 1125.84 387.976C1126.87 386.248 1128.24 384.904 1129.97 383.944C1131.72 382.963 1133.63 382.472 1135.7 382.472C1138.07 382.472 1140.17 383.059 1142 384.232C1143.86 385.384 1145.2 387.027 1146.04 389.16H1141.65C1141.08 387.987 1140.28 387.112 1139.25 386.536C1138.23 385.96 1137.04 385.672 1135.7 385.672C1134.23 385.672 1132.92 386.003 1131.76 386.664C1130.61 387.325 1129.71 388.275 1129.04 389.512C1128.4 390.749 1128.08 392.189 1128.08 393.832C1128.08 395.475 1128.4 396.915 1129.04 398.152C1129.71 399.389 1130.61 400.349 1131.76 401.032C1132.92 401.693 1134.23 402.024 1135.7 402.024C1137.04 402.024 1138.23 401.736 1139.25 401.16C1140.28 400.584 1141.08 399.709 1141.65 398.536H1146.04C1145.2 400.669 1143.86 402.312 1142 403.464C1140.17 404.616 1138.07 405.192 1135.7 405.192C1133.61 405.192 1131.7 404.712 1129.97 403.752C1128.24 402.771 1126.87 401.416 1125.84 399.688C1124.84 397.96 1124.34 396.008 1124.34 393.832ZM1164.67 382.76V385.736H1158.75V405H1155.11V385.736H1149.15V382.76H1164.67ZM1167.41 385V381.672H1174.06V405H1170.38V385H1167.41Z" fill="#2C2C2C"/>
</svg>
