<svg width="195" height="141" viewBox="0 0 195 141" fill="none" xmlns="http://www.w3.org/2000/svg">
<path d="M13.952 132L8.832 123.104H6.048V132H2.4V109.76H10.08C11.7867 109.76 13.2267 110.059 14.4 110.656C15.5947 111.253 16.48 112.053 17.056 113.056C17.6533 114.059 17.952 115.179 17.952 116.416C17.952 117.867 17.5253 119.189 16.672 120.384C15.84 121.557 14.5493 122.357 12.8 122.784L18.304 132H13.952ZM6.048 120.192H10.08C11.4453 120.192 12.4693 119.851 13.152 119.168C13.856 118.485 14.208 117.568 14.208 116.416C14.208 115.264 13.8667 114.368 13.184 113.728C12.5013 113.067 11.4667 112.736 10.08 112.736H6.048V120.192ZM38.7788 122.752C38.7788 123.413 38.7361 124.011 38.6508 124.544H25.1788C25.2854 125.952 25.8081 127.083 26.7468 127.936C27.6854 128.789 28.8374 129.216 30.2028 129.216C32.1654 129.216 33.5521 128.395 34.3628 126.752H38.2987C37.7654 128.373 36.7948 129.707 35.3868 130.752C34.0001 131.776 32.2721 132.288 30.2028 132.288C28.5174 132.288 27.0028 131.915 25.6588 131.168C24.3361 130.4 23.2908 129.333 22.5228 127.968C21.7761 126.581 21.4028 124.981 21.4028 123.168C21.4028 121.355 21.7654 119.765 22.4908 118.4C23.2374 117.013 24.2721 115.947 25.5948 115.2C26.9388 114.453 28.4748 114.08 30.2028 114.08C31.8668 114.08 33.3494 114.443 34.6508 115.168C35.9521 115.893 36.9654 116.917 37.6908 118.24C38.4161 119.541 38.7788 121.045 38.7788 122.752ZM34.9708 121.6C34.9494 120.256 34.4694 119.179 33.5308 118.368C32.5921 117.557 31.4294 117.152 30.0428 117.152C28.7841 117.152 27.7068 117.557 26.8108 118.368C25.9148 119.157 25.3814 120.235 25.2108 121.6H34.9708ZM49.4728 114.08C50.8381 114.08 52.0434 114.357 53.0888 114.912C54.1554 115.445 54.9874 116.117 55.5848 116.928V114.368H59.2648V132.288C59.2648 133.909 58.9234 135.349 58.2408 136.608C57.5581 137.888 56.5661 138.891 55.2648 139.616C53.9848 140.341 52.4488 140.704 50.6568 140.704C48.2674 140.704 46.2834 140.139 44.7048 139.008C43.1261 137.899 42.2301 136.384 42.0168 134.464H45.6328C45.9101 135.381 46.4968 136.117 47.3928 136.672C48.3101 137.248 49.3981 137.536 50.6568 137.536C52.1288 137.536 53.3128 137.088 54.2088 136.192C55.1261 135.296 55.5848 133.995 55.5848 132.288V129.344C54.9661 130.176 54.1234 130.88 53.0568 131.456C52.0114 132.011 50.8168 132.288 49.4728 132.288C47.9368 132.288 46.5288 131.904 45.2488 131.136C43.9901 130.347 42.9874 129.259 42.2408 127.872C41.5154 126.464 41.1528 124.875 41.1528 123.104C41.1528 121.333 41.5154 119.765 42.2408 118.4C42.9874 117.035 43.9901 115.979 45.2488 115.232C46.5288 114.464 47.9368 114.08 49.4728 114.08ZM55.5848 123.168C55.5848 121.952 55.3288 120.896 54.8168 120C54.3261 119.104 53.6754 118.421 52.8648 117.952C52.0541 117.483 51.1794 117.248 50.2408 117.248C49.3021 117.248 48.4274 117.483 47.6168 117.952C46.8061 118.4 46.1448 119.072 45.6328 119.968C45.1421 120.843 44.8968 121.888 44.8968 123.104C44.8968 124.32 45.1421 125.387 45.6328 126.304C46.1448 127.221 46.8061 127.925 47.6168 128.416C48.4488 128.885 49.3234 129.12 50.2408 129.12C51.1794 129.12 52.0541 128.885 52.8648 128.416C53.6754 127.947 54.3261 127.264 54.8168 126.368C55.3288 125.451 55.5848 124.384 55.5848 123.168ZM65.9123 112.032C65.2509 112.032 64.6963 111.808 64.2483 111.36C63.8003 110.912 63.5763 110.357 63.5763 109.696C63.5763 109.035 63.8003 108.48 64.2483 108.032C64.6963 107.584 65.2509 107.36 65.9123 107.36C66.5523 107.36 67.0963 107.584 67.5443 108.032C67.9923 108.48 68.2163 109.035 68.2163 109.696C68.2163 110.357 67.9923 110.912 67.5443 111.36C67.0963 111.808 66.5523 112.032 65.9123 112.032ZM67.7043 114.368V132H64.0563V114.368H67.7043ZM78.8938 132.288C77.5071 132.288 76.2591 132.043 75.1498 131.552C74.0618 131.04 73.1978 130.357 72.5578 129.504C71.9178 128.629 71.5764 127.659 71.5338 126.592H75.3098C75.3738 127.339 75.7258 127.968 76.3658 128.48C77.0271 128.971 77.8484 129.216 78.8298 129.216C79.8538 129.216 80.6431 129.024 81.1978 128.64C81.7738 128.235 82.0618 127.723 82.0618 127.104C82.0618 126.443 81.7418 125.952 81.1018 125.632C80.4831 125.312 79.4911 124.96 78.1258 124.576C76.8031 124.213 75.7258 123.861 74.8938 123.52C74.0618 123.179 73.3364 122.656 72.7178 121.952C72.1204 121.248 71.8218 120.32 71.8218 119.168C71.8218 118.229 72.0991 117.376 72.6538 116.608C73.2084 115.819 73.9978 115.2 75.0218 114.752C76.0671 114.304 77.2618 114.08 78.6058 114.08C80.6111 114.08 82.2218 114.592 83.4378 115.616C84.6751 116.619 85.3364 117.995 85.4218 119.744H81.7738C81.7098 118.955 81.3898 118.325 80.8138 117.856C80.2378 117.387 79.4591 117.152 78.4778 117.152C77.5178 117.152 76.7818 117.333 76.2698 117.696C75.7578 118.059 75.5018 118.539 75.5018 119.136C75.5018 119.605 75.6724 120 76.0138 120.32C76.3551 120.64 76.7711 120.896 77.2618 121.088C77.7524 121.259 78.4778 121.483 79.4378 121.76C80.7178 122.101 81.7631 122.453 82.5738 122.816C83.4058 123.157 84.1204 123.669 84.7178 124.352C85.3151 125.035 85.6244 125.941 85.6458 127.072C85.6458 128.075 85.3684 128.971 84.8138 129.76C84.2591 130.549 83.4698 131.168 82.4458 131.616C81.4431 132.064 80.2591 132.288 78.8938 132.288ZM93.8435 117.344V127.104C93.8435 127.765 93.9928 128.245 94.2915 128.544C94.6115 128.821 95.1448 128.96 95.8915 128.96H98.1315V132H95.2515C93.6088 132 92.3502 131.616 91.4755 130.848C90.6008 130.08 90.1635 128.832 90.1635 127.104V117.344H88.0835V114.368H90.1635V109.984H93.8435V114.368H98.1315V117.344H93.8435ZM105.142 116.928C105.675 116.032 106.379 115.339 107.254 114.848C108.15 114.336 109.206 114.08 110.422 114.08V117.856H109.494C108.064 117.856 106.976 118.219 106.23 118.944C105.504 119.669 105.142 120.928 105.142 122.72V132H101.494V114.368H105.142V116.928ZM112.559 123.104C112.559 121.333 112.922 119.765 113.647 118.4C114.394 117.035 115.396 115.979 116.655 115.232C117.935 114.464 119.343 114.08 120.879 114.08C122.266 114.08 123.471 114.357 124.495 114.912C125.54 115.445 126.372 116.117 126.991 116.928V114.368H130.671V132H126.991V129.376C126.372 130.208 125.53 130.901 124.463 131.456C123.396 132.011 122.18 132.288 120.815 132.288C119.3 132.288 117.914 131.904 116.655 131.136C115.396 130.347 114.394 129.259 113.647 127.872C112.922 126.464 112.559 124.875 112.559 123.104ZM126.991 123.168C126.991 121.952 126.735 120.896 126.223 120C125.732 119.104 125.082 118.421 124.271 117.952C123.46 117.483 122.586 117.248 121.647 117.248C120.708 117.248 119.834 117.483 119.023 117.952C118.212 118.4 117.551 119.072 117.039 119.968C116.548 120.843 116.303 121.888 116.303 123.104C116.303 124.32 116.548 125.387 117.039 126.304C117.551 127.221 118.212 127.925 119.023 128.416C119.855 128.885 120.73 129.12 121.647 129.12C122.586 129.12 123.46 128.885 124.271 128.416C125.082 127.947 125.732 127.264 126.223 126.368C126.735 125.451 126.991 124.384 126.991 123.168ZM139.719 117.344V127.104C139.719 127.765 139.868 128.245 140.167 128.544C140.487 128.821 141.02 128.96 141.767 128.96H144.007V132H141.127C139.484 132 138.225 131.616 137.351 130.848C136.476 130.08 136.039 128.832 136.039 127.104V117.344H133.959V114.368H136.039V109.984H139.719V114.368H144.007V117.344H139.719ZM149.225 112.032C148.563 112.032 148.009 111.808 147.561 111.36C147.113 110.912 146.889 110.357 146.889 109.696C146.889 109.035 147.113 108.48 147.561 108.032C148.009 107.584 148.563 107.36 149.225 107.36C149.865 107.36 150.409 107.584 150.857 108.032C151.305 108.48 151.529 109.035 151.529 109.696C151.529 110.357 151.305 110.912 150.857 111.36C150.409 111.808 149.865 112.032 149.225 112.032ZM151.017 114.368V132H147.369V114.368H151.017ZM163.454 132.288C161.79 132.288 160.286 131.915 158.942 131.168C157.598 130.4 156.542 129.333 155.774 127.968C155.006 126.581 154.622 124.981 154.622 123.168C154.622 121.376 155.017 119.787 155.806 118.4C156.596 117.013 157.673 115.947 159.038 115.2C160.404 114.453 161.929 114.08 163.614 114.08C165.3 114.08 166.825 114.453 168.19 115.2C169.556 115.947 170.633 117.013 171.422 118.4C172.212 119.787 172.606 121.376 172.606 123.168C172.606 124.96 172.201 126.549 171.39 127.936C170.58 129.323 169.47 130.4 168.062 131.168C166.676 131.915 165.14 132.288 163.454 132.288ZM163.454 129.12C164.393 129.12 165.268 128.896 166.078 128.448C166.91 128 167.582 127.328 168.094 126.432C168.606 125.536 168.862 124.448 168.862 123.168C168.862 121.888 168.617 120.811 168.126 119.936C167.636 119.04 166.985 118.368 166.174 117.92C165.364 117.472 164.489 117.248 163.55 117.248C162.612 117.248 161.737 117.472 160.926 117.92C160.137 118.368 159.508 119.04 159.038 119.936C158.569 120.811 158.334 121.888 158.334 123.168C158.334 125.067 158.814 126.539 159.774 127.584C160.756 128.608 161.982 129.12 163.454 129.12ZM185.109 114.08C186.495 114.08 187.733 114.368 188.821 114.944C189.93 115.52 190.794 116.373 191.413 117.504C192.031 118.635 192.341 120 192.341 121.6V132H188.725V122.144C188.725 120.565 188.33 119.36 187.541 118.528C186.751 117.675 185.674 117.248 184.309 117.248C182.943 117.248 181.855 117.675 181.045 118.528C180.255 119.36 179.861 120.565 179.861 122.144V132H176.213V114.368H179.861V116.384C180.458 115.659 181.215 115.093 182.133 114.688C183.071 114.283 184.063 114.08 185.109 114.08Z" fill="white"/>
<path d="M87.952 54.384C87.952 55.5147 87.6853 56.5813 87.152 57.584C86.6187 58.5867 85.7653 59.408 84.592 60.048C83.4187 60.6667 81.9147 60.976 80.08 60.976H76.048V70H72.4V47.76H80.08C81.7867 47.76 83.2267 48.0587 84.4 48.656C85.5947 49.232 86.48 50.0213 87.056 51.024C87.6533 52.0267 87.952 53.1467 87.952 54.384ZM80.08 58C81.4667 58 82.5013 57.6907 83.184 57.072C83.8667 56.432 84.208 55.536 84.208 54.384C84.208 51.952 82.832 50.736 80.08 50.736H76.048V58H80.08ZM90.2153 61.104C90.2153 59.3333 90.5779 57.7653 91.3033 56.4C92.0499 55.0347 93.0526 53.9787 94.3113 53.232C95.5913 52.464 96.9993 52.08 98.5353 52.08C99.9219 52.08 101.127 52.3573 102.151 52.912C103.197 53.4453 104.029 54.1173 104.647 54.928V52.368H108.327V70H104.647V67.376C104.029 68.208 103.186 68.9013 102.119 69.456C101.053 70.0107 99.8366 70.288 98.4713 70.288C96.9566 70.288 95.5699 69.904 94.3113 69.136C93.0526 68.3467 92.0499 67.2587 91.3033 65.872C90.5779 64.464 90.2153 62.8747 90.2153 61.104ZM104.647 61.168C104.647 59.952 104.391 58.896 103.879 58C103.389 57.104 102.738 56.4213 101.927 55.952C101.117 55.4827 100.242 55.248 99.3033 55.248C98.3646 55.248 97.4899 55.4827 96.6793 55.952C95.8686 56.4 95.2073 57.072 94.6953 57.968C94.2046 58.8427 93.9593 59.888 93.9593 61.104C93.9593 62.32 94.2046 63.3867 94.6953 64.304C95.2073 65.2213 95.8686 65.9253 96.6793 66.416C97.5113 66.8853 98.3859 67.12 99.3033 67.12C100.242 67.12 101.117 66.8853 101.927 66.416C102.738 65.9467 103.389 65.264 103.879 64.368C104.391 63.4507 104.647 62.384 104.647 61.168ZM116.767 54.928C117.3 54.032 118.004 53.3387 118.879 52.848C119.775 52.336 120.831 52.08 122.047 52.08V55.856H121.119C119.689 55.856 118.601 56.2187 117.855 56.944C117.129 57.6693 116.767 58.928 116.767 60.72V70H113.119V52.368H116.767V54.928ZM132.376 61.2L140.504 70H135.576L129.048 62.416V70H125.4V46.32H129.048V60.08L135.448 52.368H140.504L132.376 61.2ZM144.975 50.032C144.313 50.032 143.759 49.808 143.311 49.36C142.863 48.912 142.639 48.3573 142.639 47.696C142.639 47.0347 142.863 46.48 143.311 46.032C143.759 45.584 144.313 45.36 144.975 45.36C145.615 45.36 146.159 45.584 146.607 46.032C147.055 46.48 147.279 47.0347 147.279 47.696C147.279 48.3573 147.055 48.912 146.607 49.36C146.159 49.808 145.615 50.032 144.975 50.032ZM146.767 52.368V70H143.119V52.368H146.767ZM160.452 52.08C161.839 52.08 163.076 52.368 164.164 52.944C165.274 53.52 166.138 54.3733 166.756 55.504C167.375 56.6347 167.684 58 167.684 59.6V70H164.068V60.144C164.068 58.5653 163.674 57.36 162.884 56.528C162.095 55.6747 161.018 55.248 159.652 55.248C158.287 55.248 157.199 55.6747 156.388 56.528C155.599 57.36 155.204 58.5653 155.204 60.144V70H151.556V52.368H155.204V54.384C155.802 53.6587 156.559 53.0933 157.476 52.688C158.415 52.2827 159.407 52.08 160.452 52.08ZM179.442 52.08C180.807 52.08 182.012 52.3573 183.058 52.912C184.124 53.4453 184.956 54.1173 185.554 54.928V52.368H189.234V70.288C189.234 71.9093 188.892 73.3493 188.21 74.608C187.527 75.888 186.535 76.8907 185.234 77.616C183.954 78.3413 182.418 78.704 180.626 78.704C178.236 78.704 176.252 78.1387 174.674 77.008C173.095 75.8987 172.199 74.384 171.986 72.464H175.602C175.879 73.3813 176.466 74.1173 177.362 74.672C178.279 75.248 179.367 75.536 180.626 75.536C182.098 75.536 183.282 75.088 184.178 74.192C185.095 73.296 185.554 71.9947 185.554 70.288V67.344C184.935 68.176 184.092 68.88 183.026 69.456C181.98 70.0107 180.786 70.288 179.442 70.288C177.906 70.288 176.498 69.904 175.218 69.136C173.959 68.3467 172.956 67.2587 172.21 65.872C171.484 64.464 171.122 62.8747 171.122 61.104C171.122 59.3333 171.484 57.7653 172.21 56.4C172.956 55.0347 173.959 53.9787 175.218 53.232C176.498 52.464 177.906 52.08 179.442 52.08ZM185.554 61.168C185.554 59.952 185.298 58.896 184.786 58C184.295 57.104 183.644 56.4213 182.834 55.952C182.023 55.4827 181.148 55.248 180.21 55.248C179.271 55.248 178.396 55.4827 177.586 55.952C176.775 56.4 176.114 57.072 175.602 57.968C175.111 58.8427 174.866 59.888 174.866 61.104C174.866 62.32 175.111 63.3867 175.602 64.304C176.114 65.2213 176.775 65.9253 177.586 66.416C178.418 66.8853 179.292 67.12 180.21 67.12C181.148 67.12 182.023 66.8853 182.834 66.416C183.644 65.9467 184.295 65.264 184.786 64.368C185.298 63.4507 185.554 62.384 185.554 61.168Z" fill="white"/>
<g clip-path="url(#clip0_4_4787)">
<path d="M50.5271 69.5945V64.7324H47.1757C41.3947 64.7324 38.7413 61.3052 38.7413 56.2613V5.30088H39.7353C50.562 5.30088 57.4379 12.4667 57.4379 23.0027V23.9468H61.5558V0.438431H3.43188V23.9468H7.54986V23.0027C7.54986 12.4667 14.4255 5.30088 25.2524 5.30088H26.2464V56.2613C26.2464 61.3052 23.5931 64.7324 17.8121 64.7324H14.4606V69.5945H50.5271Z" fill="#E20074"/>
<path d="M61.5558 46.0861H47.7346V32.2551H61.5558V46.0861Z" fill="#E20074"/>
<path d="M17.2516 46.0861H3.43042V32.2551H17.2516V46.0861Z" fill="#E20074"/>
</g>
<defs>
<clipPath id="clip0_4_4787">
<rect width="59" height="70" fill="white" transform="translate(3)"/>
</clipPath>
</defs>
</svg>
