<svg width="100" height="46" viewBox="0 0 100 46" fill="none" xmlns="http://www.w3.org/2000/svg">
<path d="M47.976 32.192C47.976 32.7573 47.8427 33.2907 47.576 33.792C47.3093 34.2933 46.8827 34.704 46.296 35.024C45.7093 35.3333 44.9573 35.488 44.04 35.488H42.024V40H40.2V28.88H44.04C44.8933 28.88 45.6133 29.0293 46.2 29.328C46.7973 29.616 47.24 30.0107 47.528 30.512C47.8267 31.0133 47.976 31.5733 47.976 32.192ZM44.04 34C44.7333 34 45.2507 33.8453 45.592 33.536C45.9333 33.216 46.104 32.768 46.104 32.192C46.104 30.976 45.416 30.368 44.04 30.368H42.024V34H44.04ZM49.1076 35.552C49.1076 34.6667 49.289 33.8827 49.6516 33.2C50.025 32.5173 50.5263 31.9893 51.1556 31.616C51.7956 31.232 52.4996 31.04 53.2676 31.04C53.961 31.04 54.5636 31.1787 55.0756 31.456C55.5983 31.7227 56.0143 32.0587 56.3236 32.464V31.184H58.1636V40H56.3236V38.688C56.0143 39.104 55.593 39.4507 55.0596 39.728C54.5263 40.0053 53.9183 40.144 53.2356 40.144C52.4783 40.144 51.785 39.952 51.1556 39.568C50.5263 39.1733 50.025 38.6293 49.6516 37.936C49.289 37.232 49.1076 36.4373 49.1076 35.552ZM56.3236 35.584C56.3236 34.976 56.1956 34.448 55.9396 34C55.6943 33.552 55.369 33.2107 54.9636 32.976C54.5583 32.7413 54.121 32.624 53.6516 32.624C53.1823 32.624 52.745 32.7413 52.3396 32.976C51.9343 33.2 51.6036 33.536 51.3476 33.984C51.1023 34.4213 50.9796 34.944 50.9796 35.552C50.9796 36.16 51.1023 36.6933 51.3476 37.152C51.6036 37.6107 51.9343 37.9627 52.3396 38.208C52.7556 38.4427 53.193 38.56 53.6516 38.56C54.121 38.56 54.5583 38.4427 54.9636 38.208C55.369 37.9733 55.6943 37.632 55.9396 37.184C56.1956 36.7253 56.3236 36.192 56.3236 35.584ZM62.3834 32.464C62.65 32.016 63.002 31.6693 63.4394 31.424C63.8874 31.168 64.4154 31.04 65.0234 31.04V32.928H64.5594C63.8447 32.928 63.3007 33.1093 62.9274 33.472C62.5647 33.8347 62.3834 34.464 62.3834 35.36V40H60.5594V31.184H62.3834V32.464ZM70.188 35.6L74.252 40H71.788L68.524 36.208V40H66.7V28.16H68.524V35.04L71.724 31.184H74.252L70.188 35.6ZM76.4874 30.016C76.1567 30.016 75.8794 29.904 75.6554 29.68C75.4314 29.456 75.3194 29.1787 75.3194 28.848C75.3194 28.5173 75.4314 28.24 75.6554 28.016C75.8794 27.792 76.1567 27.68 76.4874 27.68C76.8074 27.68 77.0794 27.792 77.3034 28.016C77.5274 28.24 77.6394 28.5173 77.6394 28.848C77.6394 29.1787 77.5274 29.456 77.3034 29.68C77.0794 29.904 76.8074 30.016 76.4874 30.016ZM77.3834 31.184V40H75.5594V31.184H77.3834ZM84.2261 31.04C84.9195 31.04 85.5381 31.184 86.0821 31.472C86.6368 31.76 87.0688 32.1867 87.3781 32.752C87.6875 33.3173 87.8421 34 87.8421 34.8V40H86.0341V35.072C86.0341 34.2827 85.8368 33.68 85.4421 33.264C85.0475 32.8373 84.5088 32.624 83.8261 32.624C83.1435 32.624 82.5995 32.8373 82.1941 33.264C81.7995 33.68 81.6021 34.2827 81.6021 35.072V40H79.7781V31.184H81.6021V32.192C81.9008 31.8293 82.2795 31.5467 82.7381 31.344C83.2075 31.1413 83.7035 31.04 84.2261 31.04ZM93.7208 31.04C94.4034 31.04 95.0061 31.1787 95.5288 31.456C96.0621 31.7227 96.4781 32.0587 96.7768 32.464V31.184H98.6168V40.144C98.6168 40.9547 98.4461 41.6747 98.1048 42.304C97.7634 42.944 97.2674 43.4453 96.6168 43.808C95.9768 44.1707 95.2088 44.352 94.3128 44.352C93.1181 44.352 92.1261 44.0693 91.3368 43.504C90.5474 42.9493 90.0994 42.192 89.9928 41.232H91.8008C91.9394 41.6907 92.2328 42.0587 92.6808 42.336C93.1394 42.624 93.6834 42.768 94.3128 42.768C95.0488 42.768 95.6408 42.544 96.0888 42.096C96.5474 41.648 96.7768 40.9973 96.7768 40.144V38.672C96.4674 39.088 96.0461 39.44 95.5128 39.728C94.9901 40.0053 94.3928 40.144 93.7208 40.144C92.9528 40.144 92.2488 39.952 91.6088 39.568C90.9794 39.1733 90.4781 38.6293 90.1048 37.936C89.7421 37.232 89.5608 36.4373 89.5608 35.552C89.5608 34.6667 89.7421 33.8827 90.1048 33.2C90.4781 32.5173 90.9794 31.9893 91.6088 31.616C92.2488 31.232 92.9528 31.04 93.7208 31.04ZM96.7768 35.584C96.7768 34.976 96.6488 34.448 96.3928 34C96.1474 33.552 95.8221 33.2107 95.4168 32.976C95.0114 32.7413 94.5741 32.624 94.1048 32.624C93.6354 32.624 93.1981 32.7413 92.7928 32.976C92.3874 33.2 92.0568 33.536 91.8008 33.984C91.5554 34.4213 91.4328 34.944 91.4328 35.552C91.4328 36.16 91.5554 36.6933 91.8008 37.152C92.0568 37.6107 92.3874 37.9627 92.7928 38.208C93.2088 38.4427 93.6461 38.56 94.1048 38.56C94.5741 38.56 95.0114 38.4427 95.4168 38.208C95.8221 37.9733 96.1474 37.632 96.3928 37.184C96.6488 36.7253 96.7768 36.192 96.7768 35.584Z" fill="#2C2C2C"/>
<path d="M25.9158 39.7359V37.4567H24.376C21.72 37.4567 20.501 35.8502 20.501 33.4858V9.59751H20.9576C25.9318 9.59751 29.0908 12.9566 29.0908 17.8955V18.338H30.9827V7.31818H4.27856V18.338H6.17051V17.8955C6.17051 12.9566 9.32943 9.59751 14.3037 9.59751H14.7604V33.4858C14.7604 35.8502 13.5413 37.4567 10.8853 37.4567H9.34554V39.7359H25.9158Z" fill="#E20074"/>
<path d="M30.9828 28.7161H24.6328V22.2326H30.9828V28.7161Z" fill="#E20074"/>
<path d="M10.6278 28.7161H4.27783V22.2326H10.6278V28.7161Z" fill="#E20074"/>
</svg>
